<svg width="924" height="704" viewBox="0 0 924 704" fill="none" xmlns="http://www.w3.org/2000/svg">
<path d="M902.636 577.673H21.3641V578.114H902.636V577.673Z" fill="#EBEBEB"/>
<path d="M814.334 606.044H776.124V606.485H814.334V606.044Z" fill="#EBEBEB"/>
<path d="M628.855 596.9H568.736V597.34H628.855V596.9Z" fill="#EBEBEB"/>
<path d="M798.841 589.677H720.364V590.117H798.841V589.677Z" fill="#EBEBEB"/>
<path d="M326.311 598.564H306.679V599.004H326.311V598.564Z" fill="#EBEBEB"/>
<path d="M290.987 598.564H223.325V599.004H290.987V598.564Z" fill="#EBEBEB"/>
<path d="M187.047 591.122H138.233V591.563H187.047V591.122Z" fill="#EBEBEB"/>
<path d="M439.112 499.065H98.7664C93.2197 499.065 88.7058 494.551 88.7058 489.004V10.5793C88.7058 5.03244 93.2197 0.518433 98.7664 0.518433H439.112C444.657 0.518433 449.171 5.03244 449.171 10.5793V489.004C449.171 494.551 444.657 499.065 439.112 499.065ZM98.7664 0.960843C93.4612 0.960843 89.1464 5.27568 89.1464 10.5811V489.006C89.1464 494.311 93.4612 498.626 98.7664 498.626H439.112C444.415 498.626 448.73 494.311 448.73 489.006V10.5793C448.73 5.27568 444.415 0.959082 439.112 0.959082L98.7664 0.960843Z" fill="#EBEBEB"/>
<path d="M820.343 499.065H479.999C474.453 499.065 469.94 494.551 469.94 489.004V10.5793C469.94 5.03244 474.454 0.518433 479.999 0.518433H820.343C825.891 0.518433 830.403 5.03244 830.403 10.5793V489.004C830.405 494.551 825.891 499.065 820.343 499.065ZM479.999 0.960843C474.696 0.960843 470.381 5.27568 470.381 10.5811V489.006C470.381 494.311 474.696 498.626 479.999 498.626H820.343C825.648 498.626 829.963 494.311 829.963 489.006V10.5793C829.963 5.27568 825.648 0.959082 820.343 0.959082L479.999 0.960843Z" fill="#EBEBEB"/>
<path d="M402.2 257.727L402.993 234.565L388.773 229.918C388.188 222.004 386.864 214.189 384.982 206.659L397.034 197.772L388.847 176.016L373.939 177.217C370.386 170.182 366.211 163.49 361.531 157.211L369.253 144.321L353.376 127.381L340.048 134.206C334.044 129.103 327.717 124.483 320.943 120.398L323.102 105.603L301.955 96.0052L292.267 107.36C284.885 104.964 277.238 103.174 269.325 101.986L265.723 87.483L242.5 86.6881L237.913 100.91C229.938 101.554 222.184 102.818 214.657 104.702L205.706 92.7074L183.953 100.835L185.155 115.744C178.119 119.358 171.429 123.532 165.15 128.213L152.323 120.493L135.321 136.307L142.144 149.696C137.045 155.639 132.422 162.03 128.394 168.806L113.603 166.587L103.946 187.731L115.36 197.421C112.967 204.805 111.111 212.513 109.986 220.367L95.4206 224.026L94.6274 247.188L108.908 251.84C109.491 259.812 110.816 267.569 112.701 275.095L100.65 283.982L108.837 305.74L123.745 304.536C127.298 311.571 131.473 318.263 136.153 324.542L128.429 337.431L144.308 354.374L157.635 347.547C163.578 352.648 169.967 357.273 176.741 361.359L174.52 376.149L195.667 385.746L205.417 374.393C212.799 376.788 220.447 378.579 228.36 379.767L231.963 394.27L255.186 395.065L259.774 380.842C267.748 380.199 275.501 378.935 283.029 377.051L291.918 389.042L313.671 380.915L312.529 366.01C319.567 362.397 326.196 358.218 332.534 353.538L345.363 361.262L362.363 345.446L355.542 332.057C360.641 326.114 365.264 319.723 369.292 312.947L384.083 315.168L393.74 294.022L382.324 284.331C384.719 276.95 386.572 269.304 387.698 261.39L402.2 257.727ZM245.693 332.762C194.971 331.024 155.252 288.486 156.99 237.76C158.729 186.975 201.267 147.258 251.989 148.996C302.712 150.734 342.43 193.269 340.691 244.054C338.953 294.78 296.416 334.5 245.693 332.762Z" fill="#EBEBEB"/>
<path d="M798.57 181.133L804.411 175.678L802.077 171.078C803.864 169.005 805.447 166.777 806.824 164.482L811.93 165.254L815.238 157.953L811.309 154.612C812.159 152.029 812.772 149.38 813.162 146.708L818.189 145.448L818.448 137.446L813.534 135.859C813.313 133.152 812.897 130.482 812.242 127.834L816.377 124.753L813.56 117.257L808.429 117.662C807.213 115.277 805.786 112.975 804.146 110.758L806.804 106.343L801.335 100.486L796.747 102.833C794.645 101.044 792.447 99.4634 790.152 98.0868L790.894 92.9788L783.607 89.6563L780.266 93.5852C777.669 92.7497 775.02 92.1363 772.347 91.7468L771.101 86.7357L763.099 86.4467L761.498 91.3749C758.805 91.5811 756.121 92.0112 753.486 92.6827L750.421 88.5353L742.91 91.3361L743.33 96.4829C740.945 97.6991 738.613 99.1268 736.424 100.768L731.981 98.108L726.14 103.563L728.488 108.179C726.686 110.266 725.118 112.48 723.741 114.775L718.635 114.003L715.325 121.306L719.254 124.647C718.404 127.23 717.791 129.879 717.401 132.551L712.374 133.811L712.115 141.815L717.029 143.4C717.235 146.093 717.665 148.779 718.319 151.426L714.172 154.492L716.989 161.988L722.135 161.597C723.351 163.981 724.779 166.282 726.42 168.503L723.762 172.918L729.231 178.775L733.817 176.425C735.918 178.213 738.118 179.795 740.413 181.172L739.657 186.264L746.943 189.587L750.299 185.674C752.897 186.509 755.532 187.107 758.218 187.51L759.464 192.521L767.466 192.81L769.067 187.882C771.76 187.676 774.444 187.246 777.079 186.574L780.144 190.724L787.656 187.923L787.235 182.776C789.618 181.56 791.936 180.148 794.14 178.493L798.57 181.133ZM756.946 147.413C752.648 142.811 752.895 135.593 757.497 131.296C762.104 126.993 769.322 127.24 773.619 131.844C777.916 136.446 777.669 143.664 773.062 147.967C768.46 152.264 761.243 152.015 756.946 147.413Z" fill="#EBEBEB"/>
<path d="M585.358 418.93L567.132 406.342C567.126 406.328 567.126 406.312 567.121 406.298C565.318 399.676 562.831 393.302 559.791 387.311L564.46 368.984L538.021 340.668L519.411 344.075C513.647 340.636 507.462 337.721 500.985 335.47C500.971 335.466 500.953 335.463 500.939 335.456L489.624 316.402L450.909 315.075L438.321 333.302C438.299 333.307 438.274 333.314 438.249 333.319C431.634 335.123 425.266 337.604 419.284 340.641L400.966 335.972L372.653 362.413L376.053 380.987C376.049 380.994 376.045 380.996 376.042 381.003C372.531 386.832 369.683 393.019 367.432 399.5L348.382 410.81L347.055 449.527L365.297 462.126C367.099 468.794 369.508 475.154 372.607 481.194C372.609 481.198 372.609 481.198 372.61 481.201L367.954 499.472L394.392 527.785L412.886 524.401C418.724 527.852 424.917 530.771 431.474 533.025C431.479 533.029 431.483 533.029 431.49 533.029L442.786 552.054L481.5 553.381L494.079 535.167C500.772 533.367 507.149 530.882 513.205 527.838C513.205 527.838 513.208 527.838 513.21 527.834L531.445 532.48L559.759 506.043L556.359 487.465C559.87 481.637 562.718 475.446 564.969 468.965L564.971 468.962L584.027 457.644L585.358 418.93ZM464.708 477.784C440.643 476.959 421.843 456.754 422.665 432.756C423.49 408.69 443.625 389.888 467.691 390.711C491.756 391.536 510.558 411.672 509.734 435.739C508.913 459.736 488.774 478.608 464.708 477.784Z" fill="#EBEBEB"/>
<path d="M626.882 308.976C626.84 308.976 626.798 308.976 626.755 308.974L596.233 307.929C594.966 307.887 593.808 307.199 593.161 306.11L584.943 292.27C580.573 290.686 576.267 288.687 572.106 286.316L558.875 288.736C557.627 288.972 556.351 288.544 555.485 287.615L534.641 265.295C533.776 264.368 533.443 263.064 533.755 261.835L537.082 248.775C535.061 244.638 533.369 240.219 532.043 235.608L518.77 226.441C517.726 225.722 517.122 224.518 517.164 223.252L518.209 192.729C518.251 191.462 518.939 190.304 520.028 189.657L533.892 181.424C535.537 176.922 537.53 172.638 539.832 168.649L537.401 155.371C537.174 154.125 537.595 152.845 538.522 151.982L560.845 131.135C561.772 130.268 563.076 129.937 564.305 130.249L577.409 133.589C581.648 131.527 586.053 129.828 590.539 128.529L599.699 115.265C600.418 114.222 601.6 113.577 602.889 113.661L633.411 114.708C634.678 114.75 635.836 115.436 636.483 116.527L644.717 130.392C649.092 131.994 653.364 133.987 657.455 136.335L670.77 133.896C672.019 133.668 673.295 134.09 674.161 135.017L695.005 157.342C695.87 158.269 696.203 159.573 695.891 160.802L692.549 173.912C694.613 178.153 696.311 182.556 697.611 187.036L710.874 196.195C711.918 196.914 712.522 198.118 712.48 199.385L711.435 229.91C711.393 231.177 710.705 232.335 709.616 232.982L695.747 241.218C694.102 245.718 692.112 250.001 689.814 253.985L692.244 267.268C692.472 268.514 692.051 269.794 691.123 270.657L668.801 291.498C667.875 292.365 666.573 292.7 665.343 292.385L652.298 289.061C647.999 291.137 643.57 292.834 639.1 294.119L629.949 307.372C629.249 308.377 628.104 308.976 626.882 308.976ZM598.521 300.56L624.975 301.467L633.737 288.78C634.237 288.056 634.981 287.531 635.832 287.301C640.706 285.992 645.541 284.138 650.206 281.792C650.215 281.788 650.222 281.785 650.231 281.779C651.008 281.397 651.914 281.279 652.8 281.51L665.205 284.67L684.553 266.605L682.238 253.96C682.075 253.068 682.244 252.148 682.711 251.369C685.263 247.134 687.427 242.487 689.144 237.561C689.426 236.687 690.024 235.952 690.803 235.493L704.062 227.618L704.968 201.162L692.273 192.393C691.608 191.934 691.111 191.272 690.856 190.509C690.824 190.413 690.796 190.313 690.771 190.211C689.444 185.349 687.597 180.573 685.282 176.013C684.873 175.207 684.773 174.282 684.993 173.408L688.173 160.932L670.107 141.581L657.436 143.9C656.548 144.064 655.633 143.897 654.859 143.435C650.453 140.805 645.8 138.632 641.03 136.973C640.761 136.88 640.487 136.755 640.253 136.612C639.738 136.295 639.31 135.859 639.003 135.341L631.121 122.07L604.667 121.163L595.898 133.86C595.377 134.617 594.596 135.149 593.708 135.362C588.813 136.704 584.052 138.544 579.512 140.847C578.707 141.256 577.78 141.359 576.909 141.135L564.439 137.955L545.091 156.023L547.406 168.666C547.552 169.46 547.434 170.279 547.074 171C547.023 171.102 546.967 171.201 546.907 171.3C544.349 175.551 542.182 180.211 540.467 185.152C540.177 185.98 539.606 186.682 538.852 187.13L525.584 195.01L524.678 221.465L537.386 230.243C538.11 230.742 538.633 231.484 538.864 232.333C540.234 237.402 542.077 242.216 544.346 246.64C544.476 246.894 544.579 247.162 544.647 247.44C544.797 248.038 544.795 248.664 544.644 249.261L541.475 261.694L559.541 281.041L572.122 278.739C573.005 278.578 573.914 278.742 574.685 279.197C579.17 281.85 583.846 284.021 588.588 285.657C589.444 285.928 590.186 286.508 590.657 287.303L598.521 300.56ZM614.862 267.132C614.21 267.132 613.559 267.12 612.904 267.097C582.154 266.043 557.995 240.17 559.049 209.419C560.103 178.671 586.018 154.518 616.725 155.562C647.474 156.616 671.633 182.489 670.579 213.241C670.07 228.117 663.793 241.916 652.908 252.092C642.49 261.832 629.043 267.132 614.862 267.132ZM614.795 162.973C588.889 162.973 567.382 183.587 566.489 209.675C565.576 236.322 586.511 258.744 613.159 259.657C626.071 260.089 638.383 255.483 647.827 246.654C657.261 237.834 662.701 225.877 663.141 212.985C664.054 186.338 643.117 163.914 616.471 163.001C615.91 162.984 615.35 162.973 614.795 162.973Z" fill="#EBEBEB"/>
<path d="M697.192 89.3021L684.547 85.9073L681.152 73.2642L686.103 68.3131L691.326 79.1284L702.141 84.3527L697.192 89.3021Z" fill="#E0E0E0"/>
<path d="M697.976 80.8381C700.28 78.5344 700.28 74.7801 697.976 72.4764C695.672 70.1727 691.936 70.1903 689.632 72.494L695.921 63.0588L704.356 67.3226L706.205 76.1867L697.976 80.8381Z" fill="#E0E0E0"/>
<path d="M685.106 69.3108L694.372 60.0448L707.014 63.4396L710.411 76.0844L701.145 85.3504L688.501 81.9539L685.106 69.3108ZM701.929 76.8864C704.233 74.5827 704.233 70.8284 701.929 68.5247C699.626 66.2209 695.889 66.2386 693.586 68.5423C691.282 70.846 691.282 74.5668 693.586 76.8688C695.889 79.1725 699.626 79.1901 701.929 76.8864Z" fill="#F0F0F0"/>
<path d="M180.382 426.636L187.166 424.814L188.989 418.03L186.333 415.373L183.53 421.178L177.726 423.98L180.382 426.636Z" fill="#E0E0E0"/>
<path d="M179.961 422.094C178.726 420.859 178.726 418.844 179.961 417.607C181.197 416.371 183.202 416.38 184.438 417.615L181.063 412.552L176.537 414.839L175.544 419.595L179.961 422.094Z" fill="#E0E0E0"/>
<path d="M186.868 415.909L181.896 410.937L175.112 412.76L173.29 419.546L178.262 424.518L185.046 422.695L186.868 415.909ZM177.839 419.974C176.603 418.738 176.603 416.724 177.839 415.486C179.074 414.251 181.08 414.26 182.316 415.495C183.551 416.731 183.551 418.728 182.316 419.963C181.082 421.201 179.076 421.209 177.839 419.974Z" fill="#F0F0F0"/>
<path d="M155.957 54.6478L161.589 60.2793C163.055 61.7458 165.454 61.7458 166.921 60.2793C168.387 58.8128 168.387 56.4139 166.921 54.9474L161.289 49.3159C159.823 47.8494 157.424 47.8494 155.957 49.3159C154.491 50.7824 154.491 53.1831 155.957 54.6478Z" fill="#F0F0F0"/>
<path d="M151.99 40.6227C156.329 39.0646 161.033 41.1022 162.496 45.1755C163.959 49.2489 161.627 53.814 157.288 55.3739C152.949 56.932 148.244 54.8945 146.781 50.8211C145.319 46.7478 147.65 42.1826 151.99 40.6227Z" fill="#E0E0E0"/>
<path d="M145.854 49.8812L146.67 52.1537L163.426 46.1353L162.61 43.8628L145.854 49.8812Z" fill="#F0F0F0"/>
<path d="M462 674.43C659.887 674.43 820.307 665.062 820.307 653.505C820.307 641.948 659.887 632.579 462 632.579C264.113 632.579 103.693 641.948 103.693 653.505C103.693 665.062 264.113 674.43 462 674.43Z" fill="#F5F5F5"/>
<path d="M250.439 203.352C250.335 203.352 250.228 203.333 250.124 203.293C242.281 200.255 237.588 197.288 235.152 193.722C233.382 194.078 231.401 193.843 229.52 192.949C227.694 192.081 225.936 190.563 224.674 188.38C223.498 189.288 222.045 189.535 220.449 189.033C218.678 188.477 216.837 186.986 215.305 184.832C214.331 185.536 213.332 185.642 212.601 185.581C207.42 185.159 200.401 174.847 199.898 163.857C199.875 163.377 200.248 162.968 200.729 162.949C201.199 162.909 201.618 163.297 201.638 163.78C202.116 174.209 208.798 183.525 212.743 183.846C213.383 183.908 213.918 183.708 214.368 183.359C212.001 179.207 210.773 173.286 212.585 166.958C214.083 161.722 215.408 159.674 216.997 160.054C219.999 160.802 219.606 172.204 218.015 179.724C217.654 181.43 217.135 182.654 216.542 183.528C217.917 185.559 219.546 186.925 220.973 187.374C222.249 187.775 223.193 187.435 223.89 186.771C222.521 183.398 222.237 178.801 224.096 172.937C226.542 165.219 227.527 165.01 228.116 164.887C228.531 164.798 228.945 164.935 229.24 165.27C230.85 167.087 228.926 179.074 226.898 185.003C226.635 185.773 226.307 186.447 225.927 187.019C227.009 189.139 228.604 190.584 230.271 191.377C231.61 192.013 232.983 192.245 234.232 192.128C234.075 191.799 233.934 191.464 233.807 191.124C232.425 187.383 233.101 183.063 235.872 177.919C237.71 174.507 239.209 172.916 240.589 172.914C240.998 172.914 241.767 173.066 242.309 174.068C243.828 176.872 242.729 186.125 239.725 190.717C239.017 191.799 238.04 192.619 236.905 193.153C239.24 196.223 243.673 198.927 250.756 201.674C251.204 201.848 251.427 202.352 251.255 202.799C251.119 203.141 250.788 203.352 250.439 203.352ZM240.587 174.652C240.582 174.652 239.603 174.659 237.404 178.742C234.884 183.42 234.241 187.271 235.44 190.516C235.586 190.913 235.76 191.3 235.962 191.684C236.893 191.285 237.689 190.636 238.264 189.76C240.704 186.029 241.873 178.367 240.965 175.372C240.779 174.758 240.589 174.652 240.587 174.652ZM228.09 167.31C227.64 168.156 226.884 169.896 225.755 173.46C224.26 178.179 224.251 181.971 225.084 184.87C225.141 184.724 225.195 184.577 225.246 184.433C227.295 178.442 228.294 170.189 228.09 167.31ZM216.614 161.821C216.319 162.091 215.472 163.189 214.258 167.434C212.656 173.033 213.643 178.14 215.525 181.803C215.885 181.047 216.136 180.176 216.309 179.36C218.116 170.803 217.589 163.06 216.614 161.821Z" fill="#263238"/>
<path d="M316.686 294.69C314.029 294.69 311.234 294.084 308.738 292.618C308.324 292.372 308.184 291.841 308.428 291.424C308.67 291.008 309.205 290.874 309.62 291.113C315.836 294.763 323.87 292.216 325.524 289.556C325.716 289.244 325.892 288.849 325.78 288.387C323.322 288.647 320.297 287.995 316.839 285.833C312.405 283.06 312.063 282.236 312.091 281.577C312.108 281.187 312.33 280.847 312.685 280.666C314.421 279.786 322.278 283.409 325.554 285.562C325.982 285.845 326.345 286.15 326.638 286.472C328.086 286.12 329.208 285.371 329.954 284.477C330.466 283.862 330.807 283.193 330.976 282.522C330.861 282.539 330.745 282.553 330.628 282.563C327.842 282.844 325.047 281.649 322.07 278.897C320.025 277.006 319.23 275.703 319.495 274.67C319.579 274.34 319.854 273.755 320.748 273.532C323.158 272.932 329.107 275.468 331.539 278.136C332.086 278.735 332.459 279.441 332.658 280.199C334.932 279.131 337.337 276.735 340.184 272.756C340.464 272.364 341.008 272.275 341.4 272.556C341.792 272.835 341.881 273.38 341.602 273.771C338.311 278.371 335.566 280.978 332.81 282.041C332.701 283.268 332.194 284.515 331.295 285.596C330.412 286.653 329.124 287.563 327.495 288.054C327.669 288.838 327.512 289.668 327.007 290.48C325.535 292.845 321.321 294.69 316.686 294.69ZM315.139 282.604C315.724 283.036 316.564 283.607 317.763 284.358C320.127 285.838 322.234 286.519 324.036 286.662C321.149 284.872 317.373 283.288 315.139 282.604ZM321.22 275.201C321.318 275.473 321.704 276.189 323.252 277.62C325.841 280.014 328.197 281.079 330.45 280.833C330.635 280.814 330.821 280.788 331.008 280.749C330.884 280.22 330.631 279.73 330.251 279.312C327.8 276.623 322.41 274.921 321.22 275.201Z" fill="#263238"/>
<path d="M339.764 292.299L312.612 297.231L287.961 162.684L235.574 172.2L150.21 323.801L159.376 373.827L268.87 353.937L276.366 394.854L328.753 385.338L321.257 344.423L348.409 339.489L339.764 292.299ZM202.371 317.258L247.604 237.855L260.227 306.749L202.371 317.258Z" fill="#FE7100"/>
<path d="M558.428 153.534C557.414 144.239 555.559 135.981 552.858 128.758C550.159 121.535 546.097 114.455 540.678 107.518C535.258 100.581 527.879 94.5584 518.541 89.4544C509.201 84.3522 496.874 80.7991 481.559 78.8039C449.685 74.6514 424.839 80.3112 407.011 95.7765C389.182 111.245 377.453 140.876 371.816 184.666C369.523 202.477 368.955 218.941 370.114 234.059C371.269 249.176 374.043 261.336 378.439 270.536C384.453 283.464 392.963 293.789 403.965 301.505C414.966 309.223 430.037 314.33 449.183 316.824C483.331 321.273 508.636 314.719 525.103 297.156C541.566 279.596 552.49 249.911 557.871 208.109C560.274 189.458 560.458 171.268 558.428 153.534Z" fill="#FE7100"/>
<path d="M464.919 298.935C460.728 298.792 456.269 298.414 451.663 297.813C435.712 295.736 423.37 291.698 414.978 285.81C406.698 280.004 400.434 272.364 395.825 262.449L395.739 262.27C392.388 255.259 390.2 245.274 389.231 232.597C388.177 218.852 388.715 203.55 390.831 187.113C397.05 138.807 409.895 118.653 419.577 110.254C430.865 100.46 446.1 96.0344 466.154 96.7209C470.263 96.8621 474.614 97.2298 479.085 97.8118C491.955 99.4881 502.139 102.335 509.353 106.275C516.338 110.093 521.798 114.483 525.575 119.318C529.764 124.679 532.903 130.114 534.905 135.47C537.036 141.168 538.54 147.945 539.376 155.611C541.232 171.832 541.056 188.638 538.866 205.661C534.034 243.194 524.701 269.566 511.125 284.043C501.055 294.786 485.942 299.658 464.924 298.937C464.92 298.935 464.919 298.935 464.919 298.935Z" fill="#263238"/>
<path d="M499.019 154.048L499.246 147.447L495.194 146.123C495.027 143.868 494.651 141.641 494.114 139.494L497.548 136.962L495.215 130.762L490.967 131.103C489.955 129.1 488.764 127.191 487.431 125.402L489.632 121.728L485.107 116.902L481.308 118.846C479.597 117.393 477.794 116.076 475.863 114.912L476.478 110.695L470.452 107.959L467.692 111.195C465.589 110.512 463.409 110.001 461.154 109.663L460.128 105.53L453.51 105.303L452.203 109.356C449.929 109.539 447.721 109.9 445.576 110.437L443.025 107.02L436.825 109.335L437.169 113.584C435.163 114.614 433.257 115.802 431.467 117.137L427.811 114.938L422.967 119.444L424.912 123.258C423.459 124.952 422.141 126.773 420.993 128.704L416.778 128.071L414.026 134.097L417.28 136.859C416.597 138.964 416.069 141.16 415.748 143.397L411.597 144.439L411.371 151.04L415.44 152.366C415.605 154.639 415.983 156.848 416.52 158.993L413.085 161.525L415.419 167.725L419.667 167.382C420.679 169.386 421.869 171.294 423.203 173.084L421.002 176.757L425.527 181.586L429.324 179.641C431.018 181.094 432.839 182.412 434.768 183.577L434.135 187.793L440.161 190.528L442.94 187.292C445.043 187.976 447.223 188.486 449.478 188.824L450.504 192.957L457.122 193.184L458.429 189.131C460.701 188.948 462.911 188.587 465.056 188.05L467.589 191.468L473.789 189.152L473.464 184.903C475.469 183.874 477.358 182.683 479.165 181.349L482.821 183.549L487.665 179.041L485.72 175.227C487.174 173.533 488.491 171.712 489.637 169.781L493.853 170.414L496.604 164.388L493.351 161.626C494.034 159.523 494.562 157.343 494.882 155.088L499.019 154.048ZM454.42 175.431C439.965 174.936 428.646 162.813 429.141 148.358C429.638 133.886 441.759 122.568 456.213 123.063C470.667 123.558 481.986 135.679 481.49 150.151C480.996 164.606 468.874 175.926 454.42 175.431Z" fill="#FE7100"/>
<path opacity="0.3" d="M526.527 275.292L527.006 270.843L524.331 269.752C524.323 268.222 524.19 266.708 523.936 265.232L526.375 263.683L525.136 259.379L522.24 259.401C521.657 257.995 520.968 256.645 520.156 255.374L521.808 253.004L519.011 249.523L516.344 250.635C515.279 249.579 514.129 248.601 512.874 247.723L513.523 244.889L509.6 242.737L507.551 244.807C506.145 244.208 504.692 243.771 503.235 243.436L502.742 240.585L498.293 240.087L497.202 242.762C495.672 242.77 494.179 242.924 492.682 243.178L491.135 240.718L486.829 241.977L486.852 244.874C485.465 245.459 484.116 246.147 482.825 246.959L480.455 245.287L476.975 248.083L478.087 250.751C477.05 251.818 476.053 252.966 475.173 254.221L472.359 253.593L470.207 257.516L472.258 259.544C471.68 260.973 471.223 262.406 470.887 263.881L468.036 264.354L467.557 268.802L470.23 269.914C470.219 271.423 470.371 272.938 470.627 274.415L468.169 275.963L469.428 280.269L472.324 280.265C472.91 281.652 473.596 283.001 474.41 284.273L472.739 286.643L475.536 290.144L478.226 289.013C479.291 290.069 480.439 291.046 481.696 291.926L481.047 294.76L484.97 296.913L487.017 294.862C488.425 295.441 489.878 295.878 491.335 296.213L491.828 299.064L496.277 299.562L497.368 296.887C498.877 296.879 500.391 296.727 501.888 296.473L503.435 298.931L507.72 297.672L507.718 294.775C509.105 294.19 510.454 293.503 511.745 292.691L514.094 294.362L517.595 291.567L516.462 288.898C517.518 287.833 518.496 286.683 519.395 285.43L522.207 286.056L524.359 282.133L522.308 280.105C522.887 278.678 523.324 277.243 523.659 275.787L526.527 275.292ZM504.096 273.565C502.029 277.327 497.291 278.716 493.529 276.649C489.767 274.583 488.399 269.846 490.466 266.084C492.532 262.322 497.248 260.954 501.011 263.019C504.773 265.086 506.16 269.803 504.096 273.565Z" fill="#FE7100"/>
<path d="M551.215 199.985L546.02 196.397C546.018 196.394 546.018 196.389 546.017 196.385C545.503 194.498 544.793 192.682 543.927 190.974L545.259 185.752L537.724 177.682L532.422 178.653C530.78 177.672 529.017 176.842 527.171 176.201C527.168 176.199 527.163 176.199 527.157 176.198L523.934 170.768L512.902 170.39L509.314 175.584C509.307 175.586 509.3 175.588 509.293 175.589C507.408 176.103 505.594 176.811 503.888 177.675L498.667 176.344L490.6 183.879L491.568 189.173C491.567 189.174 491.567 189.176 491.565 189.178C490.565 190.839 489.753 192.602 489.111 194.449L483.684 197.673L483.305 208.705L488.503 212.295C489.016 214.194 489.704 216.006 490.586 217.728C490.586 217.73 490.586 217.73 490.586 217.73L489.26 222.937L496.792 231.005L502.064 230.041C503.726 231.024 505.491 231.857 507.361 232.498C507.363 232.5 507.364 232.5 507.366 232.5L510.584 237.921L521.616 238.299L525.201 233.108C527.107 232.596 528.924 231.886 530.651 231.019C530.651 231.019 530.653 231.019 530.653 231.017L535.849 232.341L543.917 224.808L542.948 219.514C543.948 217.853 544.76 216.088 545.402 214.243L550.831 211.016L551.215 199.985ZM516.833 216.757C509.975 216.522 504.618 210.765 504.852 203.927C505.087 197.068 510.825 191.712 517.682 191.945C524.54 192.18 529.897 197.919 529.663 204.776C529.43 211.613 523.69 216.993 516.833 216.757Z" fill="white"/>
<path d="M589.12 111.942L590.027 109.752C590.029 109.752 590.031 109.75 590.033 109.75C590.684 109.414 591.296 109.009 591.855 108.556L593.878 108.633L596.248 105.232L595.475 103.36C595.705 102.68 595.872 101.968 595.961 101.239C595.961 101.238 595.961 101.236 595.961 101.234L597.7 99.6223L596.97 95.5412L594.779 94.6333C594.777 94.6316 594.778 94.6281 594.776 94.6263C594.439 93.9746 594.037 93.3647 593.584 92.8054L593.661 90.784L590.259 88.4141L588.391 89.1861H588.389C587.701 88.9491 586.99 88.7905 586.262 88.6999L584.65 86.9608L580.569 87.6909L579.66 89.8831C579.003 90.2211 578.391 90.6167 577.828 91.0767L575.812 91.0001L573.444 94.4016L574.212 96.2609C573.982 96.9492 573.815 97.6619 573.728 98.399L571.991 100.009L572.721 104.09L574.909 104.998C575.247 105.659 575.652 106.27 576.107 106.835L576.03 108.847L579.431 111.217L581.299 110.444C581.987 110.681 582.7 110.839 583.429 110.93L585.04 112.671L589.12 111.942ZM580.252 100.638C579.799 98.101 581.491 95.6806 584.019 95.2275C586.556 94.7745 588.975 96.4578 589.43 98.995C589.885 101.532 588.198 103.951 585.662 104.406C583.134 104.859 580.707 103.175 580.252 100.638Z" fill="#FE7100"/>
<path d="M541.312 100.38L539.981 99.2564C542.295 96.5171 545.576 93.0459 550.45 90.493L551.258 92.0387C546.062 94.7588 542.734 98.6988 541.312 100.38Z" fill="#FE7100"/>
<path d="M555.224 90.4704L554.536 88.8672C561.128 86.0443 568.014 84.943 574.991 85.5912L574.829 87.3268C568.138 86.689 561.544 87.759 555.224 90.4704Z" fill="#FE7100"/>
<path d="M551.934 102.525L550.495 101.544C554.074 96.2871 561.147 91.7093 567.695 90.4111L568.033 92.1189C561.896 93.3386 555.276 97.6166 551.934 102.525Z" fill="#FE7100"/>
<path d="M436.301 270.224C436.068 270.224 435.841 270.13 435.676 269.96L432.022 266.194C430.161 266.018 428.321 265.676 426.54 265.173L420.845 267.684C420.575 267.807 420.262 267.776 420.012 267.614L410.472 261.289C410.225 261.123 410.078 260.846 410.082 260.548L410.176 254.339C409.017 252.896 407.984 251.33 407.099 249.674L402.211 247.778C401.934 247.67 401.732 247.432 401.671 247.141L399.397 235.922C399.338 235.631 399.432 235.33 399.644 235.122L403.41 231.47C403.584 229.617 403.926 227.776 404.427 225.982L401.92 220.295C401.8 220.023 401.828 219.709 401.99 219.46L408.313 209.918C408.477 209.67 408.711 209.517 409.054 209.527L415.259 209.623C416.716 208.459 418.284 207.426 419.927 206.548L421.823 201.656C421.931 201.379 422.171 201.177 422.462 201.116L433.681 198.84C433.972 198.785 434.273 198.875 434.479 199.088L438.128 202.85C439.982 203.024 441.825 203.368 443.622 203.869L449.308 201.362C449.578 201.243 449.891 201.269 450.141 201.433L459.681 207.757C459.928 207.923 460.075 208.2 460.071 208.498L459.977 214.71C461.137 216.154 462.169 217.721 463.051 219.371L467.942 221.269C468.219 221.377 468.421 221.616 468.482 221.907L470.756 233.125C470.815 233.416 470.721 233.718 470.509 233.925L466.741 237.579C466.569 239.411 466.227 241.249 465.722 243.056L468.233 248.753C468.353 249.024 468.325 249.34 468.163 249.587L461.841 259.131C461.678 259.379 461.416 259.502 461.103 259.522L454.894 259.427C453.448 260.581 451.881 261.611 450.233 262.493L448.332 267.394C448.225 267.672 447.983 267.874 447.692 267.935L436.474 270.21C436.416 270.219 436.359 270.224 436.301 270.224ZM426.479 263.376C426.561 263.376 426.644 263.388 426.725 263.413C428.591 263.96 430.53 264.322 432.494 264.486C432.705 264.504 432.9 264.596 433.046 264.748L436.594 268.405L446.879 266.319L448.726 261.559C448.802 261.362 448.949 261.198 449.135 261.1C450.883 260.189 452.533 259.105 454.04 257.875C454.199 257.746 454.378 257.657 454.603 257.68L460.651 257.772L466.449 249.024L464.002 243.476C463.92 243.29 463.906 243.077 463.964 242.88C464.514 240.979 464.875 239.038 465.037 237.11C465.055 236.9 465.147 236.704 465.299 236.556L468.956 233.009L466.872 222.726L462.12 220.882C461.918 220.804 461.753 220.654 461.655 220.46C460.749 218.718 459.663 217.074 458.43 215.571C458.299 215.41 458.227 215.21 458.231 215.004L458.323 208.951L449.576 203.153L444.042 205.593C443.854 205.675 443.644 205.689 443.448 205.633C441.559 205.084 439.611 204.721 437.657 204.559C437.446 204.542 437.251 204.448 437.105 204.3L433.562 200.646L423.278 202.731L421.436 207.483C421.359 207.68 421.213 207.844 421.025 207.942C419.289 208.846 417.637 209.933 416.118 211.172C415.959 211.301 415.747 211.394 415.552 211.371L409.505 211.277L403.708 220.025L406.151 225.564C406.255 225.803 406.248 226.075 406.133 226.307C405.642 228.047 405.281 229.99 405.117 231.94C405.1 232.149 405.008 232.345 404.856 232.493L401.2 236.039L403.284 246.322L408.034 248.164C408.247 248.245 408.418 248.408 408.51 248.611C409.413 250.34 410.497 251.982 411.723 253.475C411.854 253.635 411.927 253.839 411.924 254.045L411.831 260.095L420.579 265.894L426.127 263.448C426.238 263.402 426.359 263.376 426.479 263.376ZM435.049 257.739C430.644 257.739 426.193 256.491 422.253 253.881C417.085 250.455 413.558 245.22 412.323 239.144C411.087 233.066 412.295 226.871 415.721 221.701H415.722C422.806 211.028 437.246 208.097 447.912 215.166C458.579 222.246 461.507 236.687 454.436 247.359C449.973 254.09 442.578 257.739 435.049 257.739ZM417.174 222.665C414.006 227.444 412.889 233.174 414.032 238.797C415.174 244.419 418.435 249.26 423.217 252.428C433.092 258.969 446.443 256.263 452.981 246.395C459.522 236.525 456.816 223.167 446.948 216.62C437.082 210.08 423.726 212.791 417.174 222.665Z" fill="white"/>
<path d="M768.22 308.026L740.871 304.335L758.958 168.75L706.193 161.63L578.201 279.472L571.476 329.883L681.763 344.768L676.264 386L729.029 393.12L734.528 351.888L761.877 355.579L768.22 308.026ZM629.833 289.349L697.369 227.788L688.108 297.213L629.833 289.349Z" fill="#FE7100"/>
<path d="M712.996 391.827C712.944 391.827 712.892 391.822 712.839 391.813C712.367 391.726 712.052 391.273 712.139 390.799L752.785 167.873C752.87 167.403 753.328 167.106 753.797 167.173C754.271 167.26 754.585 167.715 754.498 168.187L713.852 391.113C713.775 391.533 713.409 391.827 712.996 391.827Z" fill="#263238"/>
<path d="M749.061 171.618C749.033 172.406 748.373 173.022 747.585 172.996C746.797 172.968 746.18 172.308 746.207 171.52C746.233 170.733 746.895 170.116 747.683 170.142C748.472 170.168 749.089 170.829 749.061 171.618Z" fill="#263238"/>
<path d="M743.255 201.766C743.227 202.554 742.567 203.171 741.779 203.144C740.992 203.118 740.375 202.456 740.401 201.668C740.427 200.881 741.089 200.264 741.877 200.29C742.664 200.316 743.281 200.977 743.255 201.766Z" fill="#263238"/>
<path d="M737.447 231.912C737.419 232.7 736.759 233.317 735.971 233.291C735.184 233.265 734.567 232.602 734.593 231.815C734.619 231.027 735.281 230.41 736.069 230.436C736.858 230.464 737.475 231.125 737.447 231.912Z" fill="#263238"/>
<path d="M726.029 263.298C726.001 264.085 725.34 264.702 724.553 264.676C723.765 264.648 723.148 263.988 723.174 263.2C723.201 262.412 723.863 261.796 724.65 261.822C725.438 261.848 726.056 262.508 726.029 263.298Z" fill="#263238"/>
<path d="M725.834 292.209C725.806 292.996 725.145 293.613 724.358 293.587C723.57 293.559 722.953 292.899 722.979 292.111C723.005 291.323 723.668 290.706 724.455 290.733C725.245 290.759 725.861 291.421 725.834 292.209Z" fill="#263238"/>
<path d="M720.027 322.357C719.999 323.144 719.339 323.761 718.551 323.735C717.764 323.709 717.147 323.047 717.173 322.259C717.199 321.471 717.861 320.855 718.649 320.881C719.436 320.907 720.053 321.567 720.027 322.357Z" fill="#263238"/>
<path d="M714.22 352.505C714.192 353.292 713.532 353.909 712.744 353.883C711.956 353.855 711.339 353.195 711.366 352.407C711.393 351.62 712.054 351.003 712.841 351.029C713.631 351.055 714.248 351.715 714.22 352.505Z" fill="#263238"/>
<path d="M708.413 382.651C708.386 383.439 707.725 384.056 706.938 384.029C706.15 384.003 705.533 383.341 705.559 382.554C705.585 381.766 706.247 381.149 707.035 381.175C707.823 381.201 708.44 381.863 708.413 382.651Z" fill="#263238"/>
<path d="M724.601 264.12C724.201 264.12 723.838 263.841 723.751 263.43C723.65 262.96 723.95 262.498 724.42 262.395L728.749 261.466C729.226 261.372 729.683 261.663 729.784 262.137C729.885 262.608 729.585 263.069 729.115 263.172L724.786 264.101C724.723 264.113 724.662 264.12 724.601 264.12Z" fill="#263238"/>
<path d="M739.049 248.066C739.049 248.066 735.149 258.223 733.837 264.378C732.525 270.533 732.445 284.285 732.445 284.285" fill="#263238"/>
<path d="M732.445 285.156H732.439C731.958 285.153 731.57 284.761 731.573 284.28C731.577 283.715 731.667 270.367 732.985 264.195C734.297 258.046 738.075 248.172 738.235 247.752C738.407 247.304 738.909 247.081 739.361 247.252C739.81 247.425 740.035 247.93 739.862 248.378C739.824 248.481 735.973 258.544 734.689 264.559C733.41 270.557 733.318 284.154 733.316 284.29C733.312 284.771 732.924 285.156 732.445 285.156Z" fill="#263238"/>
<path d="M414.381 442.03C416.665 405.19 412.463 338.223 481.708 347.088C555.926 356.589 534.692 443.378 534.692 443.378L414.381 442.03Z" fill="#263238"/>
<path d="M462.169 419.886C478.857 419.886 492.385 406.358 492.385 389.67C492.385 372.982 478.857 359.454 462.169 359.454C445.482 359.454 431.954 372.982 431.954 389.67C431.954 406.358 445.482 419.886 462.169 419.886Z" fill="white"/>
<path d="M466.137 359.501C451.825 357.058 436.522 367.608 435.014 378.297L491.756 383.515C489.757 371.33 477.493 361.44 466.137 359.501Z" fill="#263238"/>
<path d="M485.293 388.918C484.886 396.818 480.581 403.017 475.676 402.766C470.771 402.514 467.124 395.905 467.528 388.006C467.935 380.106 472.24 373.906 477.145 374.158C482.05 374.41 485.699 381.018 485.293 388.918Z" fill="#263238"/>
<path d="M462.169 421.53C444.601 421.53 430.308 407.239 430.308 389.67C430.308 372.101 444.601 357.809 462.169 357.809C479.738 357.809 494.029 372.101 494.029 389.67C494.029 407.239 479.736 421.53 462.169 421.53ZM462.169 361.098C446.414 361.098 433.597 373.915 433.597 389.67C433.597 405.425 446.413 418.242 462.169 418.242C477.924 418.242 490.74 405.425 490.74 389.67C490.74 373.915 477.922 361.098 462.169 361.098Z" fill="#FF9C4D"/>
<path opacity="0.3" d="M526.252 441.102C526.188 441.102 526.124 441.094 526.058 441.079C525.617 440.972 525.344 440.528 525.451 440.086C525.505 439.864 530.744 417.567 525.303 395.024C525.196 394.583 525.468 394.139 525.91 394.031C526.346 393.932 526.795 394.195 526.901 394.638C532.44 417.577 527.105 440.244 527.049 440.471C526.959 440.851 526.623 441.102 526.252 441.102Z" fill="white"/>
<path opacity="0.3" d="M521.669 382.696C521.357 382.696 521.059 382.518 520.921 382.216C518.806 377.601 516.183 373.365 513.123 369.624C512.835 369.272 512.888 368.756 513.24 368.468C513.59 368.179 514.108 368.23 514.398 368.583C517.545 372.433 520.243 376.789 522.416 381.532C522.605 381.944 522.424 382.433 522.011 382.62C521.899 382.671 521.784 382.696 521.669 382.696Z" fill="white"/>
<path d="M260.275 614.82C260.071 614.82 259.867 614.818 259.663 614.812C255.125 614.687 251.547 610.906 251.67 606.366C251.793 601.828 255.533 598.317 260.114 598.374C260.165 598.376 260.218 598.376 260.272 598.376C265.022 598.376 276.451 592.604 300.358 554.914C301.642 552.891 303.747 551.526 306.118 551.181C308.495 550.844 310.895 551.548 312.704 553.122C342.206 578.845 373.47 594.857 373.783 595.016C377.829 597.072 379.446 602.022 377.39 606.069C375.335 610.117 370.389 611.737 366.342 609.68C365.1 609.05 337.772 595.077 309.121 571.618C289.083 601.742 274.213 614.82 260.275 614.82Z" fill="#263238"/>
<path d="M311.144 551.645C310.91 551.645 310.677 551.628 310.44 551.596C307.743 551.211 305.869 548.711 306.255 546.013C307.424 537.828 305.976 507.162 295.608 483.318C294.662 481.145 295.396 478.608 297.354 477.273C319.879 461.922 367.858 460.087 369.891 460.016C372.599 459.957 374.896 462.052 374.991 464.775C375.087 467.497 372.956 469.782 370.234 469.876C369.79 469.893 327.842 471.501 306.288 483.364C315.47 507.106 317.552 536.704 316.021 547.409C315.669 549.871 313.559 551.645 311.144 551.645Z" fill="#263238"/>
<path d="M319.431 545.258C316.151 537.519 301.363 538.399 292.681 545.031C288.04 548.575 281.76 559.24 281.099 563.105C280.44 566.971 283.117 570.472 287.715 570.074C293.384 569.584 301.167 561.344 301.167 561.344C295.989 566.422 302.67 570.005 312.64 562.661C318.172 558.588 323.105 553.924 319.431 545.258Z" fill="#FF9C4D"/>
<path d="M602.256 444.2C602.182 444.2 602.105 444.19 602.029 444.167C601.593 444.042 601.34 443.585 601.467 443.151C603.657 435.521 606.05 430.859 609.195 428.268C608.713 426.63 608.768 424.749 609.447 422.908C610.108 421.118 611.386 419.338 613.331 417.967C612.379 416.938 612.024 415.591 612.361 414.05C612.734 412.338 613.979 410.482 615.873 408.86C615.128 408.003 614.946 407.071 614.941 406.38C614.9 401.477 623.996 394.006 634.282 392.602C634.732 392.518 635.147 392.853 635.207 393.306C635.268 393.755 634.954 394.169 634.504 394.231C624.739 395.565 616.552 402.633 616.585 406.367C616.59 406.972 616.814 407.459 617.18 407.852C620.882 405.275 626.346 403.618 632.443 404.789C637.49 405.754 639.542 406.819 639.305 408.352C638.858 411.235 628.109 411.83 620.905 410.973C619.272 410.779 618.076 410.393 617.205 409.911C615.414 411.376 614.266 413.021 613.967 414.4C613.699 415.632 614.097 416.49 614.781 417.09C617.833 415.517 622.13 414.859 627.798 416.112C635.258 417.758 635.536 418.667 635.704 419.208C635.822 419.595 635.727 419.993 635.439 420.297C633.867 421.963 622.439 421.172 616.697 419.766C615.949 419.583 615.289 419.333 614.719 419.024C612.816 420.223 611.593 421.841 610.989 423.477C610.506 424.79 610.396 426.097 610.618 427.264C610.914 427.088 611.216 426.927 611.525 426.779C614.927 425.165 619.042 425.436 624.111 427.603C627.474 429.044 629.095 430.316 629.214 431.614C629.25 431.997 629.174 432.732 628.276 433.327C625.769 434.993 616.98 434.74 612.412 432.308C611.335 431.732 610.481 430.885 609.883 429.864C607.194 432.319 605.027 436.715 603.049 443.603C602.942 443.967 602.613 444.2 602.256 444.2ZM611.177 428.856C611.631 429.698 612.306 430.392 613.181 430.857C616.893 432.832 624.192 433.285 626.931 432.18C627.49 431.953 627.574 431.764 627.574 431.764C627.574 431.759 627.484 430.838 623.462 429.118C618.853 427.146 615.177 426.87 612.229 428.266C611.871 428.437 611.519 428.633 611.177 428.856ZM616.659 418.056C616.8 418.097 616.943 418.136 617.083 418.171C622.89 419.592 630.728 419.835 633.417 419.393C632.585 419.041 630.884 418.478 627.439 417.719C622.88 416.714 619.315 417.028 616.659 418.056ZM618.734 408.811C619.476 409.087 620.314 409.25 621.097 409.342C629.291 410.312 636.525 409.166 637.607 408.145C637.327 407.892 636.224 407.188 632.133 406.405C626.734 405.377 622.018 406.731 618.734 408.811Z" fill="#263238"/>
<path d="M388.194 612.074C389.277 611.727 388.914 610.681 387.705 610.681H365.442C323.049 606.192 293.429 612.209 312.094 613.628C330.758 615.047 310.78 614.749 297.15 619.905C283.52 625.062 398.532 626.361 408.992 619.905C418.638 613.95 373.173 616.889 388.194 612.074Z" fill="#263238"/>
<path d="M547.602 618.635L353.893 612.214L345.853 424.385L574.603 429.501L547.602 618.635Z" fill="#FF9C4D"/>
<path d="M414.381 615.042C413.956 615.042 413.596 614.718 413.562 614.287L398.034 425.638C397.996 425.186 398.333 424.788 398.787 424.752C399.252 424.725 399.637 425.051 399.673 425.503L415.201 614.152C415.237 614.605 414.902 615.003 414.448 615.039C414.425 615.04 414.402 615.042 414.381 615.042Z" fill="#263238"/>
<path d="M547.602 618.635L599.666 610.709L616.065 436.055L574.603 429.501L547.602 618.635Z" fill="#FF9C4D"/>
<path opacity="0.2" d="M547.602 618.635L599.666 610.709L616.065 436.055L574.603 429.501L547.602 618.635Z" fill="black"/>
<path d="M370.655 576.008L365.88 464.417C365.382 452.768 374.832 443.123 386.487 443.385L531.289 446.622C543.381 446.892 552.519 457.67 550.809 469.644L534.755 582.108C533.3 592.3 524.404 599.762 514.115 599.42L390.144 595.311C379.601 594.96 371.108 586.548 370.655 576.008Z" fill="#EBEBEB"/>
<path d="M255.367 622.629L245.077 617.721L235.896 573.047L240.878 567.56L255.367 622.629Z" fill="#FF9C4D"/>
<path d="M255.367 622.629L269.024 614.651L257.316 577.844L240.879 567.56L255.367 622.629Z" fill="#FF9C4D"/>
<path opacity="0.2" d="M255.367 622.629L269.024 614.651L257.316 577.844L240.879 567.56L255.367 622.629Z" fill="black"/>
<path d="M479.328 630.75C478.94 630.75 478.56 630.743 478.192 630.733C473.654 630.608 470.074 626.828 470.199 622.287C470.324 617.75 474.073 614.182 478.643 614.295C491.309 614.71 518.117 606.929 533.431 592.061C534.378 591.142 535.531 590.465 536.796 590.086C562.757 582.295 572.419 598.036 572.819 598.71L558.666 607.08C558.666 607.08 558.72 607.193 558.855 607.381C558.697 607.164 555.022 602.383 543.312 605.342C524.095 622.884 494.595 630.75 479.328 630.75Z" fill="#263238"/>
<path d="M478.417 641.68L448.468 639.792L446.105 584.579L486.355 586.084L478.417 641.68Z" fill="#FF9C4D"/>
<path d="M478.417 641.68L485.418 634.713L489.757 600.285L486.355 586.084L478.417 641.68Z" fill="#FF9C4D"/>
<path opacity="0.2" d="M478.417 641.68L485.418 634.713L489.757 600.285L486.355 586.084L478.417 641.68Z" fill="black"/>
<path d="M651.923 620.771C650.883 620.771 649.834 620.444 648.941 619.766C631.848 606.776 608.745 583.711 599.878 561.46C599.748 561.136 599.655 560.798 599.597 560.452C595.274 534.745 591.143 480.631 590.969 478.338C590.764 475.623 592.798 473.252 595.514 473.047C598.222 472.848 600.6 474.875 600.806 477.593C600.848 478.146 605.02 532.79 609.238 558.29C618.081 579.924 642.055 602.14 654.91 611.909C657.079 613.559 657.502 616.654 655.853 618.823C654.884 620.1 653.412 620.771 651.923 620.771Z" fill="#263238"/>
<path d="M674.727 623.264C670.913 623.264 666.589 621.534 661.878 618.125C659.671 616.527 659.176 613.444 660.774 611.237C662.372 609.03 665.456 608.535 667.662 610.132C671.736 613.08 673.96 613.398 674.728 613.398C677.453 613.398 679.661 615.606 679.661 618.331C679.66 621.056 677.451 623.264 674.727 623.264Z" fill="#263238"/>
<path d="M663.259 617.984C668.538 602.304 690.177 605.402 697.63 607.731C705.082 610.059 711.796 612.99 715.833 615.629C719.87 618.268 719.934 622.675 714.552 625.193C707.915 628.298 691.266 625.543 691.266 625.543C699.884 629.317 691.25 635.364 676.13 629.424C671.206 627.49 661.396 623.729 663.259 617.984Z" fill="#FF9C4D"/>
<path d="M610.735 485.105C608.776 498.428 597.744 508.252 588.769 506.933C579.794 505.614 579.421 493.715 581.379 480.392C583.338 467.069 586.886 457.369 595.861 458.688C604.836 460.008 612.693 471.784 610.735 485.105Z" fill="#263238"/>
<path d="M393.7 431.921C394.443 431.921 395.046 431.318 395.046 430.575C395.046 429.831 394.443 429.228 393.7 429.228C392.956 429.228 392.353 429.831 392.353 430.575C392.353 431.318 392.956 431.921 393.7 431.921Z" fill="#263238"/>
<path d="M407.402 440.282C407.402 441.025 406.798 441.628 406.055 441.628C405.312 441.628 404.707 441.025 404.707 440.282C404.707 439.537 405.31 438.935 406.055 438.935C406.8 438.935 407.402 439.537 407.402 440.282Z" fill="#263238"/>
<path d="M408.909 599.634C408.909 600.379 408.306 600.981 407.563 600.981C406.818 600.981 406.214 600.377 406.214 599.634C406.214 598.889 406.818 598.287 407.563 598.287C408.306 598.285 408.909 598.889 408.909 599.634Z" fill="#263238"/>
<path d="M421.265 609.341C421.265 610.086 420.662 610.688 419.917 610.688C419.174 610.688 418.57 610.084 418.57 609.341C418.57 608.596 419.174 607.994 419.917 607.994C420.662 607.992 421.265 608.596 421.265 609.341Z" fill="#263238"/>
<path d="M152.479 653.839C148.08 653.839 142.133 651.174 138.927 646.541C138.637 646.122 138.741 645.547 139.16 645.257C139.58 644.965 140.154 645.07 140.446 645.491C143.895 650.47 151.495 653.126 154.87 651.553C155.225 651.387 155.513 651.178 155.733 650.927C152.717 649.533 149.96 646.805 149.217 642.644C148.797 640.302 148.465 637.136 150.398 636.698C153.048 636.103 156.515 642.512 157.849 647.371C158.097 648.269 158.174 649.103 158.089 649.853C159.257 650.173 160.406 650.256 161.391 650.113C162.192 649.997 163.328 649.668 163.932 648.737C161.687 647.219 160.177 644.543 159.673 640.995C158.956 635.943 159.494 635.061 160.054 634.63C160.418 634.351 160.88 634.298 161.325 634.486C163.3 635.327 165.695 642.496 166.154 646.552C166.204 647 166.204 647.428 166.159 647.833C166.915 648.134 167.749 648.299 168.652 648.317C170.254 648.41 171.838 647.899 173.106 647.155C172.844 646.99 172.596 646.807 172.363 646.61C170.445 644.97 169.672 642.352 169.998 638.606C170.249 635.71 170.909 634.126 172.073 633.629C172.481 633.448 173.313 633.28 174.305 634.07C176.301 635.665 178.164 640.72 177.495 644.34C177.356 645.089 177.033 645.807 176.567 646.467C179.958 647.051 184.73 646.099 188.845 645.083C189.339 644.963 189.841 645.262 189.963 645.758C190.085 646.255 189.784 646.754 189.289 646.876C184.281 648.114 178.89 649.121 175.081 648.016C173.389 649.363 171.005 650.18 168.617 650.163C167.529 650.141 166.514 649.947 165.588 649.594C164.86 650.834 163.506 651.673 161.663 651.943C160.436 652.126 158.991 652.008 157.527 651.59C157.112 652.283 156.483 652.839 155.655 653.227C154.768 653.638 153.682 653.837 152.479 653.839ZM150.882 638.543C150.775 638.826 150.581 639.761 151.039 642.32C151.647 645.721 153.848 647.981 156.285 649.173C156.274 648.779 156.202 648.343 156.071 647.864C154.619 642.581 151.86 638.94 150.882 638.543ZM161.177 636.931C161.166 637.626 161.229 638.794 161.504 640.736C161.879 643.375 162.851 645.401 164.311 646.693C163.879 642.98 162.232 638.683 161.177 636.931ZM172.803 635.325H172.799C172.795 635.327 172.106 635.676 171.836 638.763C171.567 641.873 172.132 643.98 173.562 645.201C173.888 645.479 174.257 645.711 174.669 645.902C175.192 645.323 175.549 644.677 175.673 644.002C176.168 641.324 174.893 637.403 173.463 635.815C173.093 635.403 172.855 635.325 172.803 635.325Z" fill="#263238"/>
<path d="M422.957 667.809L427.966 659.123L422.957 650.437H417.596L420.625 659.123L417.596 667.809H422.957Z" fill="#263238"/>
<path d="M417.949 663.65C415.455 663.65 413.422 661.618 413.422 659.123C413.422 656.628 415.455 654.614 417.949 654.614L409.434 652.91L407.176 659.786L410.975 665.587L417.949 663.65Z" fill="#263238"/>
<path d="M418.677 650.437H408.643L403.635 659.123L408.643 667.809H418.677L423.686 659.123L418.677 650.437ZM413.669 663.65C411.175 663.65 409.142 661.618 409.142 659.123C409.142 656.628 411.175 654.614 413.669 654.614C416.164 654.614 418.179 656.628 418.179 659.123C418.179 661.618 416.164 663.65 413.669 663.65Z" fill="#FE7100"/>
<path d="M772.259 649.858L768.541 643.407L772.259 636.957H776.241L773.992 643.409L776.241 649.858H772.259Z" fill="#FE7100"/>
<path d="M775.979 646.77C777.833 646.77 779.342 645.26 779.342 643.407C779.342 641.555 777.833 640.058 775.979 640.058L782.303 638.792L783.981 643.9L781.159 648.208L775.979 646.77Z" fill="#FE7100"/>
<path d="M775.439 636.957H782.892L786.612 643.407L782.892 649.858H775.439L771.719 643.407L775.439 636.957ZM779.159 646.77C781.013 646.77 782.523 645.26 782.523 643.407C782.523 641.555 781.013 640.058 779.159 640.058C777.306 640.058 775.811 641.555 775.811 643.407C775.809 645.26 777.306 646.77 779.159 646.77Z" fill="#263238"/>
<path d="M633.768 658.42H642.117C644.291 658.42 646.07 656.643 646.07 654.467C646.07 652.294 644.291 650.514 642.117 650.514H633.768C631.593 650.514 629.815 652.294 629.815 654.467C629.815 656.643 631.593 658.42 633.768 658.42Z" fill="#263238"/>
<path d="M620.429 650.964C622.492 646.591 627.489 644.615 631.595 646.55C635.699 648.485 637.355 653.599 635.295 657.971C633.234 662.344 628.235 664.319 624.131 662.385C620.023 660.45 618.367 655.336 620.429 650.964Z" fill="#FE7100"/>
<path d="M622.78 662.349L625.07 663.429L633.032 646.543L630.742 645.463L622.78 662.349Z" fill="#263238"/>
<path d="M405.025 514.336C403.737 514.336 402.561 514.121 401.497 513.692C400.433 513.263 399.528 512.628 398.781 511.788C398.035 510.929 397.456 509.875 397.045 508.624C396.635 507.355 396.429 505.889 396.429 504.228C396.429 502.567 396.635 501.111 397.045 499.86C397.456 498.591 398.035 497.536 398.781 496.696C399.528 495.837 400.433 495.193 401.497 494.764C402.561 494.335 403.737 494.12 405.025 494.12C406.313 494.12 407.489 494.335 408.553 494.764C409.617 495.193 410.523 495.837 411.269 496.696C412.016 497.536 412.595 498.591 413.005 499.86C413.416 501.111 413.621 502.567 413.621 504.228C413.621 505.889 413.416 507.355 413.005 508.624C412.595 509.875 412.016 510.929 411.269 511.788C410.523 512.628 409.617 513.263 408.553 513.692C407.489 514.121 406.313 514.336 405.025 514.336ZM405.025 510.556C406.313 510.556 407.312 510.136 408.021 509.296C408.749 508.456 409.113 507.252 409.113 505.684V502.772C409.113 501.204 408.749 500 408.021 499.16C407.312 498.32 406.313 497.9 405.025 497.9C403.737 497.9 402.729 498.32 402.001 499.16C401.292 500 400.937 501.204 400.937 502.772V505.684C400.937 507.252 401.292 508.456 402.001 509.296C402.729 510.136 403.737 510.556 405.025 510.556ZM417.174 494.456H421.43V510.22H427.338V494.456H431.594V510.22H437.446V494.456H441.702V514H417.174V494.456ZM446.021 494.456H450.165V504.004L449.717 508.12H449.801L451.733 504.396L458.173 494.456H461.981V514H457.837V504.452L458.285 500.336H458.201L456.269 504.06L449.829 514H446.021V494.456ZM466.283 494.456H479.499V498.236H470.539V501.904H475.523C476.438 501.904 477.259 502.053 477.987 502.352C478.715 502.651 479.331 503.071 479.835 503.612C480.358 504.153 480.759 504.797 481.039 505.544C481.319 506.291 481.459 507.103 481.459 507.98C481.459 508.857 481.319 509.66 481.039 510.388C480.759 511.116 480.358 511.751 479.835 512.292C479.331 512.833 478.715 513.253 477.987 513.552C477.259 513.851 476.438 514 475.523 514H466.283V494.456ZM475.019 510.304C475.654 510.304 476.148 510.145 476.503 509.828C476.876 509.492 477.063 509.007 477.063 508.372V507.532C477.063 506.897 476.876 506.421 476.503 506.104C476.148 505.768 475.654 505.6 475.019 505.6H470.539V510.304H475.019ZM484.685 494.456H488.941V502.24H491.769L494.681 496.78C495.111 495.996 495.587 495.417 496.109 495.044C496.651 494.652 497.341 494.456 498.181 494.456H499.917V498.236H498.181L496.165 502.044C495.904 502.548 495.605 502.94 495.269 503.22C494.952 503.481 494.569 503.687 494.121 503.836V504.004C494.607 504.097 495.017 504.284 495.353 504.564C495.708 504.825 496.016 505.227 496.277 505.768L498.573 510.22H500.309V514H498.097C497.313 514 496.66 513.832 496.137 513.496C495.633 513.16 495.148 512.535 494.681 511.62L491.769 505.992H488.941V514H484.685V494.456ZM515.62 514L514.22 509.352H507.696L506.296 514H501.984L508.424 494.456H513.688L520.044 514H515.62ZM511 498.32H510.86L508.704 505.74H513.184L511 498.32Z" fill="#2F2F2F"/>
<path d="M530.634 559.561C529.977 559.561 529.323 559.295 528.842 558.772L513.028 541.465L495.965 557.054C494.977 557.959 493.444 557.887 492.54 556.901L476.726 539.594L459.663 555.183C458.675 556.086 457.14 556.016 456.238 555.029L440.424 537.723L423.361 553.313C422.888 553.747 422.249 553.975 421.617 553.947C420.974 553.917 420.37 553.635 419.936 553.16L404.122 535.853L387.059 551.442C386.071 552.345 384.538 552.273 383.634 551.289C382.731 550.3 382.801 548.765 383.789 547.862L402.641 530.637C403.629 529.73 405.162 529.802 406.067 530.79L421.881 548.097L438.944 532.506C439.417 532.072 440.055 531.847 440.688 531.872C441.331 531.902 441.935 532.185 442.369 532.659L458.184 549.966L475.247 534.377C476.233 533.472 477.768 533.542 478.671 534.531L494.486 551.837L511.549 536.248C512.537 535.341 514.07 535.412 514.975 536.402L532.424 555.499C533.328 556.487 533.257 558.022 532.269 558.925C531.804 559.352 531.218 559.561 530.634 559.561Z" fill="#2F2F2F"/>
<path d="M221.104 139.155L226.533 136.962L226.518 135.001L206.218 116.023L213.339 113.146L221.602 121.042L226.683 126.185L226.817 126.131L226.569 118.983L226.512 107.824L233.144 105.145L232.984 136.271C232.981 137.204 232.886 138.036 232.699 138.768C232.529 139.457 232.249 140.088 231.858 140.66C231.468 141.232 230.947 141.736 230.295 142.172C229.672 142.596 228.901 142.994 227.982 143.365L223.531 145.164L221.104 139.155ZM237.187 103.511L261.888 93.5313L274.438 124.596L267.674 127.329L257.55 102.273L246.38 106.786L256.503 131.842L249.738 134.575L237.187 103.511ZM294.058 117.29C291.951 118.141 289.92 118.582 287.965 118.613C285.998 118.614 284.158 118.201 282.444 117.375C280.717 116.519 279.132 115.244 277.688 113.55C276.233 111.826 274.971 109.643 273.904 107.003C272.849 104.392 272.241 101.946 272.078 99.6644C271.904 97.3534 272.134 95.2758 272.77 93.4315C273.393 91.5575 274.407 89.9228 275.81 88.5275C277.214 87.1321 278.969 86.0089 281.075 85.1578C283.953 83.995 286.567 83.6294 288.915 84.061C291.252 84.4629 293.493 85.6971 295.64 87.7635L291.032 93.1453C290.09 92.0077 289.017 91.233 287.816 90.8212C286.631 90.3677 285.194 90.4826 283.503 91.1659C281.515 91.9691 280.176 93.2691 279.487 95.0661C278.816 96.8214 278.978 98.9303 279.973 101.393L281.987 106.377C282.982 108.84 284.336 110.484 286.05 111.31C287.782 112.095 289.642 112.085 291.63 111.282C293.292 110.611 294.432 109.632 295.052 108.347C295.689 107.019 295.987 105.622 295.946 104.154L302.759 105.129C302.561 107.97 301.777 110.427 300.405 112.5C299.051 114.531 296.936 116.127 294.058 117.29ZM308.683 99.3705L301.485 87.5762L297.997 78.9423L304.939 76.1372L308.428 84.7712L311.487 98.2377L308.683 99.3705ZM314.19 109.156C312.766 109.732 311.61 109.819 310.724 109.418C309.867 109.005 309.246 108.324 308.863 107.374L308.431 106.306C308.047 105.357 308.02 104.436 308.35 103.543C308.71 102.639 309.601 101.899 311.025 101.323C312.45 100.748 313.59 100.667 314.447 101.08C315.334 101.481 315.969 102.156 316.353 103.105L316.784 104.173C317.168 105.123 317.18 106.05 316.821 106.954C316.491 107.847 315.614 108.581 314.19 109.156Z" fill="#2F2F2F"/>
</svg>
