<svg width="24" height="24" viewBox="0 0 24 24" stroke="#000" xmlns="http://www.w3.org/2000/svg">
<g id="vuesax/linear/box">
<g id="vuesax/linear/box_2">
<g id="box">
<g id="Group">
<g id="Group_2">
<path fill="none" id="Vector" d="M3.17188 7.43994L12.0019 12.5499L20.7719 7.46991" stroke-width="1.5" stroke-linecap="round" stroke-linejoin="round"/>
<path fill="none" id="Vector_2" d="M12 21.61V12.54" stroke-width="1.5" stroke-linecap="round" stroke-linejoin="round"/>
</g>
<path fill="none" id="Vector_3" d="M9.9306 2.48L4.59061 5.45003C3.38061 6.12003 2.39062 7.80001 2.39062 9.18001V14.83C2.39062 16.21 3.38061 17.89 4.59061 18.56L9.9306 21.53C11.0706 22.16 12.9406 22.16 14.0806 21.53L19.4206 18.56C20.6306 17.89 21.6206 16.21 21.6206 14.83V9.18001C21.6206 7.80001 20.6306 6.12003 19.4206 5.45003L14.0806 2.48C12.9306 1.84 11.0706 1.84 9.9306 2.48Z" stroke-width="1.5" stroke-linecap="round" stroke-linejoin="round"/>
</g>
<path fill="none" id="Vector_4" d="M17.0017 13.2401V9.58014L7.51172 4.1001" stroke-width="1.5" stroke-linecap="round" stroke-linejoin="round"/>
</g>
</g>
</g>
</svg>
