<svg width="150" height="48" viewBox="0 0 223 48" fill="none" xmlns="http://www.w3.org/2000/svg">
<path d="M87.4116 35.7592H87.6538V35.52V25.3385V25.2465L87.5932 25.1781L84.578 21.8781L87.4116 19.0109L87.4802 18.941V18.8433V9.53979V9.44179L87.4075 9.37221L82.7011 4.63262L82.6325 4.56104H82.5316H63.2217H62.9795V4.80022V35.52V35.7592H63.2217H69.2035H69.4457V35.52V23.7585V18.8433V10.0422H79.7021L81.1027 11.4378V17.209L79.7021 18.6046H74.7899H74.6446L74.58 18.7313L71.9483 23.6465L71.7626 23.9977H72.1622H78.6849L81.1915 26.7901V35.52V35.7592H81.4297H87.4116Z" fill="#D3001A" stroke="#D3001A" stroke-width="1.19565"/>
<path d="M221.515 35.7592H221.757V35.52V25.3385V25.2465L221.697 25.1781L218.682 21.8781L221.515 19.0109L221.584 18.941V18.8433V9.53979V9.44179L221.511 9.37221L216.809 4.63262L216.736 4.56104H216.635H197.325H197.083V4.80022V35.52V35.7592H197.325H203.307H203.549V35.52V23.7585V18.8433V10.0422H213.806L215.206 11.4378V17.209L213.806 18.6046H208.893H208.752L208.683 18.7313L206.052 23.6465L205.866 23.9977H206.266H212.788L215.295 26.7901V35.52V35.7592H215.533H221.515Z" fill="#1D1D1B" stroke="#1D1D1B" stroke-width="1.19565"/>
<path d="M128.062 4.80022V4.56104H127.82H121.858H121.62V4.80022V30.5737V30.6725L121.689 30.7429L126.686 35.6892L126.754 35.7592H126.855H143.158H143.4V35.52V30.4733V30.2341H143.158H130.185H128.062V28.1325V4.80022Z" fill="#D3001A" stroke="#D3001A" stroke-width="1.19565"/>
<path d="M152.514 4.80022V4.56104H152.276H146.314H146.072V4.80022V30.5737V30.6725L146.145 30.7429L151.138 35.6892L151.211 35.7592H151.311H167.614H167.852V35.52V30.4733V30.2341H167.614H154.637H152.514V28.1325V4.80022Z" fill="#1D1D1B" stroke="#1D1D1B" stroke-width="1.19565"/>
<path d="M193.12 10.0862H193.362V9.84699V4.80022V4.56104H193.12H175.772H175.671L175.602 4.63103L170.597 9.57939L170.528 9.64941V9.7486V30.5741V30.6729L170.597 30.7429L175.59 35.6892L175.663 35.7592H175.763H193.12H193.362V35.52V30.4733V30.2341H193.12H179.126H177.015V28.1341V22.8129H191.836H192.078V22.5737V17.6145V17.3758H191.836H177.015V12.1942V10.0862H179.142H193.12Z" fill="#1D1D1B" stroke="#1D1D1B" stroke-width="1.19565"/>
<path d="M91.4485 9.67819L91.3799 9.74819V9.84699V30.4733V30.5721L91.4485 30.6421L96.5222 35.6888L96.5949 35.7592H96.6958H112.579H112.68L112.748 35.6888L117.822 30.6421L117.895 30.5721V30.4733V9.84699V9.74819L117.822 9.67819L112.748 4.63142L112.68 4.56104H112.579H96.6958H96.5949L96.5222 4.63142L91.4485 9.67819ZM97.9107 30.3061V10.2462H111.457V30.3061H97.9107Z" fill="#D3001A" stroke="#D3001A" stroke-width="1.19565"/>
<path d="M62.7373 47.9266V42.7935H64.808C65.252 42.7935 65.6354 42.8667 65.9502 43.0135C66.2731 43.1602 66.5193 43.3703 66.6889 43.6443C66.8624 43.9179 66.9512 44.243 66.9512 44.6194C66.9512 44.9958 66.8624 45.321 66.6889 45.5946C66.5193 45.8686 66.2731 46.0786 65.9502 46.2254C65.6354 46.3722 65.252 46.4454 64.808 46.4454H63.258L63.6737 45.9982V47.9266H62.7373ZM63.6737 46.1006L63.258 45.6386H64.7635C65.1793 45.6386 65.486 45.5506 65.6919 45.3746C65.9018 45.1938 66.0067 44.9422 66.0067 44.6194C66.0067 44.2918 65.9018 44.0403 65.6919 43.8643C65.486 43.6883 65.1793 43.6002 64.7635 43.6002H63.258L63.6737 43.1307V46.1006Z" fill="#1D1D1B"/>
<path d="M70.3258 47.9266L68.126 42.7935H69.1391L71.1008 47.4354H70.5195L72.5014 42.7935H73.4378L71.2461 47.9266H70.3258Z" fill="#1D1D1B"/>
<path d="M77.2447 47.9997C76.8613 47.9997 76.5061 47.9361 76.1751 47.8089C75.8481 47.6769 75.5656 47.4937 75.3194 47.2589C75.0812 47.0193 74.8956 46.7381 74.7624 46.4157C74.6251 46.0929 74.5605 45.7409 74.5605 45.3597C74.5605 44.9781 74.6251 44.6261 74.7624 44.3037C74.8956 43.9809 75.0853 43.7021 75.3275 43.4677C75.5737 43.2281 75.8562 43.0449 76.1832 42.9177C76.5101 42.7857 76.8653 42.7197 77.2528 42.7197C77.6645 42.7197 78.0399 42.7929 78.383 42.9397C78.722 43.0813 79.0086 43.2941 79.2427 43.5777L78.6413 44.1569C78.4597 43.9565 78.2539 43.8073 78.0278 43.7097C77.8058 43.6069 77.5596 43.5557 77.2972 43.5557C77.0348 43.5557 76.7926 43.5997 76.5706 43.6877C76.3567 43.7757 76.167 43.9001 76.0016 44.0617C75.8441 44.2229 75.719 44.4137 75.6302 44.6337C75.5454 44.8537 75.501 45.0957 75.501 45.3597C75.501 45.6237 75.5454 45.8657 75.6302 46.0857C75.719 46.3057 75.8441 46.4961 76.0016 46.6577C76.167 46.8189 76.3567 46.9437 76.5706 47.0317C76.7926 47.1197 77.0348 47.1637 77.2972 47.1637C77.5596 47.1637 77.8058 47.1149 78.0278 47.0169C78.2539 46.9141 78.4597 46.7601 78.6413 46.5549L79.2427 47.1417C79.0086 47.4201 78.722 47.6329 78.383 47.7797C78.0399 47.9261 77.6645 47.9997 77.2447 47.9997Z" fill="#1D1D1B"/>
<path d="M85.3203 47.9266L83.6533 42.7935H84.6221L86.1114 47.4354H85.6311L87.173 42.7935H88.0368L89.5383 47.4354H89.0701L90.5958 42.7935H91.4839L89.8168 47.9266H88.8279L87.4556 43.7394H87.7139L86.3173 47.9266H85.3203Z" fill="#1D1D1B"/>
<path d="M93.252 47.9266V42.7935H94.1843V47.9266H93.252Z" fill="#1D1D1B"/>
<path d="M96.5537 47.9266V42.7935H97.3206L100.477 46.7462H100.094V42.7935H101.022V47.9266H100.251L97.0987 43.9742H97.4781V47.9266H96.5537Z" fill="#1D1D1B"/>
<path d="M103.375 47.9266V42.7935H105.575C106.12 42.7935 106.6 42.9011 107.012 43.1163C107.423 43.3315 107.742 43.6294 107.972 44.0106C108.202 44.3922 108.32 44.8418 108.32 45.3602C108.32 45.8734 108.202 46.3234 107.972 46.7094C107.742 47.0906 107.423 47.389 107.012 47.6042C106.6 47.8194 106.12 47.9266 105.575 47.9266H103.375ZM104.307 47.1202H105.53C105.91 47.1202 106.233 47.0466 106.507 46.9002C106.786 46.7534 107 46.5482 107.145 46.2842C107.298 46.0202 107.375 45.7122 107.375 45.3602C107.375 45.0034 107.298 44.6954 107.145 44.4362C107 44.1722 106.786 43.9667 106.507 43.8203C106.233 43.6735 105.91 43.6002 105.53 43.6002H104.307V47.1202Z" fill="#1D1D1B"/>
<path d="M112.674 47.9997C112.279 47.9997 111.92 47.9337 111.589 47.8017C111.258 47.6697 110.971 47.4861 110.725 47.2517C110.483 47.0121 110.293 46.7333 110.16 46.4157C110.023 46.0929 109.958 45.7409 109.958 45.3597C109.958 44.9781 110.023 44.6289 110.16 44.3109C110.293 43.9881 110.483 43.7097 110.725 43.4749C110.971 43.2353 111.258 43.0497 111.589 42.9177C111.92 42.7857 112.279 42.7197 112.666 42.7197C113.058 42.7197 113.417 42.7857 113.744 42.9177C114.075 43.0497 114.362 43.2353 114.604 43.4749C114.85 43.7097 115.04 43.9881 115.173 44.3109C115.306 44.6289 115.375 44.9781 115.375 45.3597C115.375 45.7409 115.306 46.0929 115.173 46.4157C115.04 46.7381 114.85 47.0169 114.604 47.2517C114.362 47.4861 114.075 47.6697 113.744 47.8017C113.417 47.9337 113.062 47.9997 112.674 47.9997ZM112.666 47.1637C112.921 47.1637 113.155 47.1197 113.369 47.0317C113.587 46.9437 113.772 46.8189 113.93 46.6577C114.087 46.4913 114.208 46.3009 114.297 46.0857C114.386 45.8657 114.434 45.6237 114.434 45.3597C114.434 45.0957 114.386 44.8561 114.297 44.6409C114.208 44.4209 114.087 44.2301 113.93 44.0689C113.772 43.9029 113.587 43.7757 113.369 43.6877C113.155 43.5997 112.921 43.5557 112.666 43.5557C112.412 43.5557 112.178 43.5997 111.96 43.6877C111.75 43.7757 111.564 43.9029 111.399 44.0689C111.242 44.2301 111.116 44.4209 111.028 44.6409C110.943 44.8561 110.898 45.0957 110.898 45.3597C110.898 45.6189 110.943 45.8581 111.028 46.0781C111.116 46.2981 111.242 46.4913 111.399 46.6577C111.56 46.8189 111.746 46.9437 111.96 47.0317C112.178 47.1197 112.412 47.1637 112.666 47.1637Z" fill="#1D1D1B"/>
<path d="M118.395 47.9266L116.728 42.7935H117.696L119.186 47.4354H118.705L120.247 42.7935H121.111L122.613 47.4354H122.144L123.67 42.7935H124.558L122.891 47.9266H121.902L120.53 43.7394H120.788L119.392 47.9266H118.395Z" fill="#1D1D1B"/>
<path d="M128.711 47.9266L130.975 42.7935H131.896L134.164 47.9266H133.187L131.242 43.2995H131.613L129.672 47.9266H128.711ZM129.752 46.7386L130.003 45.9906H132.719L132.973 46.7386H129.752Z" fill="#1D1D1B"/>
<path d="M135.812 47.9266V42.7935H136.579L139.736 46.7462H139.352V42.7935H140.281V47.9266H139.51L136.357 43.9742H136.737V47.9266H135.812Z" fill="#1D1D1B"/>
<path d="M142.632 47.9266V42.7935H144.832C145.377 42.7935 145.857 42.9011 146.269 43.1163C146.68 43.3315 146.999 43.6294 147.229 44.0106C147.459 44.3922 147.576 44.8418 147.576 45.3602C147.576 45.8734 147.459 46.3234 147.229 46.7094C146.999 47.0906 146.68 47.389 146.269 47.6042C145.857 47.8194 145.377 47.9266 144.832 47.9266H142.632ZM143.564 47.1202H144.787C145.167 47.1202 145.49 47.0466 145.764 46.9002C146.043 46.7534 146.256 46.5482 146.402 46.2842C146.555 46.0202 146.632 45.7122 146.632 45.3602C146.632 45.0034 146.555 44.6954 146.402 44.4362C146.256 44.1722 146.043 43.9667 145.764 43.8203C145.49 43.6735 145.167 43.6002 144.787 43.6002H143.564V47.1202Z" fill="#1D1D1B"/>
<path d="M152.566 47.9266V42.7935H154.766C155.311 42.7935 155.791 42.9011 156.203 43.1163C156.615 43.3315 156.934 43.6294 157.164 44.0106C157.394 44.3922 157.511 44.8418 157.511 45.3602C157.511 45.8734 157.394 46.3234 157.164 46.7094C156.934 47.0906 156.615 47.389 156.203 47.6042C155.791 47.8194 155.311 47.9266 154.766 47.9266H152.566ZM153.499 47.1202H154.722C155.101 47.1202 155.424 47.0466 155.699 46.9002C155.977 46.7534 156.191 46.5482 156.336 46.2842C156.49 46.0202 156.566 45.7122 156.566 45.3602C156.566 45.0034 156.49 44.6954 156.336 44.4362C156.191 44.1722 155.977 43.9667 155.699 43.8203C155.424 43.6735 155.101 43.6002 154.722 43.6002H153.499V47.1202Z" fill="#1D1D1B"/>
<path d="M161.866 47.9997C161.47 47.9997 161.111 47.9337 160.78 47.8017C160.449 47.6697 160.163 47.4861 159.916 47.2517C159.674 47.0121 159.484 46.7333 159.351 46.4157C159.214 46.0929 159.149 45.7409 159.149 45.3597C159.149 44.9781 159.214 44.6289 159.351 44.3109C159.484 43.9881 159.674 43.7097 159.916 43.4749C160.163 43.2353 160.449 43.0497 160.78 42.9177C161.111 42.7857 161.47 42.7197 161.858 42.7197C162.249 42.7197 162.609 42.7857 162.936 42.9177C163.267 43.0497 163.553 43.2353 163.795 43.4749C164.041 43.7097 164.231 43.9881 164.364 44.3109C164.498 44.6289 164.566 44.9781 164.566 45.3597C164.566 45.7409 164.498 46.0929 164.364 46.4157C164.231 46.7381 164.041 47.0169 163.795 47.2517C163.553 47.4861 163.267 47.6697 162.936 47.8017C162.609 47.9337 162.253 47.9997 161.866 47.9997ZM161.858 47.1637C162.112 47.1637 162.346 47.1197 162.56 47.0317C162.778 46.9437 162.964 46.8189 163.121 46.6577C163.279 46.4913 163.4 46.3009 163.488 46.0857C163.577 45.8657 163.626 45.6237 163.626 45.3597C163.626 45.0957 163.577 44.8561 163.488 44.6409C163.4 44.4209 163.279 44.2301 163.121 44.0689C162.964 43.9029 162.778 43.7757 162.56 43.6877C162.346 43.5997 162.112 43.5557 161.858 43.5557C161.604 43.5557 161.369 43.5997 161.151 43.6877C160.942 43.7757 160.756 43.9029 160.59 44.0689C160.433 44.2301 160.308 44.4209 160.219 44.6409C160.134 44.8561 160.09 45.0957 160.09 45.3597C160.09 45.6189 160.134 45.8581 160.219 46.0781C160.308 46.2981 160.433 46.4913 160.59 46.6577C160.752 46.8189 160.938 46.9437 161.151 47.0317C161.369 47.1197 161.604 47.1637 161.858 47.1637Z" fill="#1D1D1B"/>
<path d="M168.917 47.9997C168.525 47.9997 168.162 47.9337 167.831 47.8017C167.5 47.6697 167.213 47.4861 166.971 47.2517C166.725 47.0121 166.535 46.7333 166.402 46.4157C166.269 46.0929 166.2 45.7409 166.2 45.3597C166.2 44.9781 166.269 44.6289 166.402 44.3109C166.535 43.9881 166.725 43.7097 166.971 43.4749C167.213 43.2353 167.5 43.0497 167.831 42.9177C168.162 42.7857 168.521 42.7197 168.909 42.7197C169.304 42.7197 169.663 42.7857 169.986 42.9177C170.317 43.0497 170.604 43.2353 170.85 43.4749C171.092 43.7097 171.282 43.9881 171.419 44.3109C171.552 44.6289 171.617 44.9781 171.617 45.3597C171.617 45.7409 171.552 46.0929 171.419 46.4157C171.282 46.7381 171.092 47.0169 170.85 47.2517C170.604 47.4861 170.317 47.6697 169.986 47.8017C169.663 47.9337 169.304 47.9997 168.917 47.9997ZM168.909 47.1637C169.163 47.1637 169.397 47.1197 169.615 47.0317C169.829 46.9437 170.015 46.8189 170.176 46.6577C170.333 46.4913 170.455 46.3009 170.539 46.0857C170.632 45.8657 170.677 45.6237 170.677 45.3597C170.677 45.0957 170.632 44.8561 170.539 44.6409C170.455 44.4209 170.333 44.2301 170.176 44.0689C170.015 43.9029 169.829 43.7757 169.615 43.6877C169.397 43.5997 169.163 43.5557 168.909 43.5557C168.654 43.5557 168.42 43.5997 168.206 43.6877C167.996 43.7757 167.807 43.9029 167.645 44.0689C167.488 44.2301 167.363 44.4209 167.274 44.6409C167.185 44.8561 167.141 45.0957 167.141 45.3597C167.141 45.6189 167.185 45.8581 167.274 46.0781C167.363 46.2981 167.488 46.4913 167.645 46.6577C167.803 46.8189 167.992 46.9437 168.206 47.0317C168.42 47.1197 168.654 47.1637 168.909 47.1637Z" fill="#1D1D1B"/>
<path d="M173.616 47.9266V42.7935H175.687C176.131 42.7935 176.51 42.8667 176.829 43.0135C177.148 43.1602 177.394 43.3703 177.568 43.6443C177.741 43.9179 177.826 44.243 177.826 44.6194C177.826 44.9958 177.741 45.321 177.568 45.5946C177.394 45.8638 177.148 46.0714 176.829 46.2182C176.51 46.3598 176.131 46.4306 175.687 46.4306H174.133L174.549 45.9982V47.9266H173.616ZM176.906 47.9266L175.634 46.0642H176.635L177.911 47.9266H176.906ZM174.549 46.1006L174.133 45.6462H175.642C176.054 45.6462 176.361 45.5558 176.567 45.3746C176.781 45.1938 176.886 44.9422 176.886 44.6194C176.886 44.2918 176.781 44.0403 176.567 43.8643C176.361 43.6883 176.054 43.6002 175.642 43.6002H174.133L174.549 43.1307V46.1006Z" fill="#1D1D1B"/>
<path d="M184.425 47.9997C184.034 47.9997 183.658 47.9433 183.299 47.8309C182.94 47.7137 182.653 47.5645 182.443 47.3837L182.766 46.6429C182.968 46.8041 183.218 46.9389 183.513 47.0461C183.812 47.1537 184.114 47.2077 184.425 47.2077C184.692 47.2077 184.906 47.1781 185.067 47.1197C185.228 47.0609 185.35 46.9829 185.426 46.8849C185.503 46.7821 185.539 46.6673 185.539 46.5401C185.539 46.3837 185.487 46.2593 185.374 46.1661C185.265 46.0685 185.123 45.9929 184.946 45.9389C184.772 45.8801 184.579 45.8265 184.361 45.7777C184.151 45.7289 183.937 45.6725 183.723 45.6089C183.513 45.5405 183.319 45.4549 183.142 45.3521C182.968 45.2449 182.827 45.1029 182.718 44.9269C182.609 44.7509 182.552 44.5261 182.552 44.2521C182.552 43.9737 182.625 43.7193 182.766 43.4897C182.916 43.2549 183.138 43.0693 183.436 42.9321C183.739 42.7905 184.118 42.7197 184.579 42.7197C184.881 42.7197 185.18 42.7589 185.475 42.8369C185.773 42.9153 186.032 43.0277 186.254 43.1741L185.959 43.9149C185.733 43.7781 185.499 43.6777 185.261 43.6141C185.023 43.5457 184.793 43.5117 184.571 43.5117C184.312 43.5117 184.102 43.5433 183.937 43.6069C183.779 43.6705 183.662 43.7537 183.586 43.8561C183.513 43.9589 183.481 44.0761 183.481 44.2081C183.481 44.3649 183.533 44.4917 183.638 44.5897C183.747 44.6825 183.888 44.7557 184.062 44.8097C184.24 44.8633 184.433 44.9173 184.651 44.9709C184.865 45.0197 185.079 45.0761 185.289 45.1397C185.503 45.2033 185.701 45.2861 185.87 45.3889C186.048 45.4917 186.189 45.6309 186.294 45.8069C186.407 45.9829 186.46 46.2053 186.46 46.4741C186.46 46.7481 186.387 47.0021 186.238 47.2369C186.092 47.4669 185.87 47.6525 185.572 47.7941C185.269 47.9313 184.885 47.9997 184.425 47.9997Z" fill="#1D1D1B"/>
<path d="M189.524 47.9266V45.8954L189.734 46.4822L187.546 42.7935H188.547L190.299 45.7634H189.738L191.506 42.7935H192.426L190.242 46.4822L190.456 45.8954V47.9266H189.524Z" fill="#1D1D1B"/>
<path d="M195.496 47.9997C195.105 47.9997 194.73 47.9433 194.37 47.8309C194.011 47.7137 193.725 47.5645 193.515 47.3837L193.838 46.6429C194.039 46.8041 194.286 46.9389 194.584 47.0461C194.883 47.1537 195.186 47.2077 195.496 47.2077C195.759 47.2077 195.973 47.1781 196.134 47.1197C196.3 47.0609 196.417 46.9829 196.493 46.8849C196.57 46.7821 196.611 46.6673 196.611 46.5401C196.611 46.3837 196.554 46.2593 196.445 46.1661C196.336 46.0685 196.191 45.9929 196.013 45.9389C195.84 45.8801 195.646 45.8265 195.432 45.7777C195.222 45.7289 195.008 45.6725 194.794 45.6089C194.58 45.5405 194.386 45.4549 194.209 45.3521C194.039 45.2449 193.898 45.1029 193.785 44.9269C193.676 44.7509 193.62 44.5261 193.62 44.2521C193.62 43.9737 193.692 43.7193 193.838 43.4897C193.987 43.2549 194.209 43.0693 194.504 42.9321C194.806 42.7905 195.19 42.7197 195.646 42.7197C195.949 42.7197 196.247 42.7589 196.546 42.8369C196.845 42.9153 197.103 43.0277 197.321 43.1741L197.026 43.9149C196.8 43.7781 196.57 43.6777 196.332 43.6141C196.09 43.5457 195.86 43.5117 195.642 43.5117C195.383 43.5117 195.17 43.5433 195.008 43.6069C194.851 43.6705 194.734 43.7537 194.657 43.8561C194.584 43.9589 194.548 44.0761 194.548 44.2081C194.548 44.3649 194.6 44.4917 194.705 44.5897C194.818 44.6825 194.96 44.7557 195.129 44.8097C195.307 44.8633 195.505 44.9173 195.718 44.9709C195.936 45.0197 196.146 45.0761 196.36 45.1397C196.574 45.2033 196.768 45.2861 196.942 45.3889C197.119 45.4917 197.26 45.6309 197.365 45.8069C197.474 45.9829 197.531 46.2053 197.531 46.4741C197.531 46.7481 197.454 47.0021 197.309 47.2369C197.163 47.4669 196.942 47.6525 196.639 47.7941C196.336 47.9313 195.957 47.9997 195.496 47.9997Z" fill="#1D1D1B"/>
<path d="M200.414 47.9266V43.6002H198.747V42.7935H203.013V43.6002H201.346V47.9266H200.414Z" fill="#1D1D1B"/>
<path d="M205.584 44.9274H208.082V45.7122H205.584V44.9274ZM205.652 47.1274H208.494V47.9266H204.72V42.7935H208.393V43.5926H205.652V47.1274Z" fill="#1D1D1B"/>
<path d="M210.54 47.9266V42.7935H211.307L213.507 46.5406H213.103L215.267 42.7935H216.034L216.042 47.9266H215.158L215.154 44.2086H215.339L213.499 47.3402H213.083L211.214 44.2086H211.428V47.9266H210.54Z" fill="#1D1D1B"/>
<path d="M219.965 47.9997C219.574 47.9997 219.198 47.9433 218.839 47.8309C218.48 47.7137 218.193 47.5645 217.983 47.3837L218.306 46.6429C218.508 46.8041 218.758 46.9389 219.053 47.0461C219.352 47.1537 219.654 47.2077 219.965 47.2077C220.232 47.2077 220.442 47.1781 220.607 47.1197C220.768 47.0609 220.89 46.9829 220.966 46.8849C221.043 46.7821 221.079 46.6673 221.079 46.5401C221.079 46.3837 221.027 46.2593 220.914 46.1661C220.805 46.0685 220.659 45.9929 220.482 45.9389C220.312 45.8801 220.119 45.8265 219.901 45.7777C219.691 45.7289 219.477 45.6725 219.263 45.6089C219.053 45.5405 218.859 45.4549 218.682 45.3521C218.508 45.2449 218.367 45.1029 218.258 44.9269C218.145 44.7509 218.092 44.5261 218.092 44.2521C218.092 43.9737 218.161 43.7193 218.306 43.4897C218.456 43.2549 218.678 43.0693 218.976 42.9321C219.275 42.7905 219.658 42.7197 220.119 42.7197C220.417 42.7197 220.72 42.7589 221.015 42.8369C221.313 42.9153 221.572 43.0277 221.79 43.1741L221.495 43.9149C221.273 43.7781 221.039 43.6777 220.801 43.6141C220.559 43.5457 220.328 43.5117 220.111 43.5117C219.852 43.5117 219.642 43.5433 219.477 43.6069C219.319 43.6705 219.202 43.7537 219.126 43.8561C219.053 43.9589 219.017 44.0761 219.017 44.2081C219.017 44.3649 219.069 44.4917 219.174 44.5897C219.287 44.6825 219.428 44.7557 219.598 44.8097C219.776 44.8633 219.973 44.9173 220.187 44.9709C220.405 45.0197 220.619 45.0761 220.829 45.1397C221.043 45.2033 221.237 45.2861 221.41 45.3889C221.588 45.4917 221.729 45.6309 221.834 45.8069C221.943 45.9829 222 46.2053 222 46.4741C222 46.7481 221.927 47.0021 221.778 47.2369C221.632 47.4669 221.41 47.6525 221.108 47.7941C220.809 47.9313 220.425 47.9997 219.965 47.9997Z" fill="#1D1D1B"/>
<path d="M0 47.9997H48.2627V9.59994L31.2495 0H0V47.9997Z" fill="#D3001A"/>
<path d="M24.1307 8.39966L40.5373 17.9648V39.8395H21.235V31.4231H26.5436V34.5491H35.2295V20.9988L24.1307 14.5284L13.0307 20.9988V39.8395H7.72168V11.464H13.0307V14.87L24.1307 8.39966Z" fill="white"/>
</svg>
