<?xml version="1.0" standalone="no"?>
<!DOCTYPE svg PUBLIC "-//W3C//DTD SVG 20010904//EN"
 "http://www.w3.org/TR/2001/REC-SVG-20010904/DTD/svg10.dtd">
<svg version="1.0" xmlns="http://www.w3.org/2000/svg"
 width="49.000000pt" height="48.000000pt" viewBox="0 0 49.000000 48.000000"
 preserveAspectRatio="xMidYMid meet">

<g transform="translate(0.000000,48.000000) scale(0.100000,-0.100000)"
fill="#D3001A" stroke="none">
<path d="M0 240 l0 -240 245 0 245 0 0 240 0 240 -245 0 -245 0 0 -240z m332
104 l78 -46 0 -109 0 -109 -100 0 -100 0 0 45 c0 41 2 45 25 45 14 0 28 -7 31
-15 4 -10 20 -15 46 -15 l39 0 -3 67 -3 67 -50 29 -50 30 -55 -31 -55 -30 -3
-96 c-3 -95 -3 -96 -27 -96 l-25 0 0 145 0 145 25 0 c16 0 25 -6 25 -15 0 -20
8 -19 55 10 22 13 46 25 54 25 8 0 50 -21 93 -46z"/>
</g>
</svg>
